<?xml version="1.0" encoding="UTF-8" ?>
<!DOCTYPE svg PUBLIC "-//W3C//DTD SVG 1.1//EN" "http://www.w3.org/Graphics/SVG/1.1/DTD/svg11.dtd">
<svg width="142pt" height="77pt" viewBox="0 0 142 77" version="1.1" xmlns="http://www.w3.org/2000/svg">
<g id="#eff8f8ff">
<path fill="#eff8f8" opacity="1.00" d=" M 54.98 69.74 C 55.10 66.37 55.47 62.99 56.51 59.77 C 57.22 63.04 57.69 66.35 58.01 69.68 C 57.25 69.69 55.73 69.72 54.98 69.74 Z" />
</g>
<g id="#d71006ff">
<path fill="#d71006" opacity="1.00" d=" M 32.86 2.99 C 39.69 2.81 45.23 7.69 49.61 12.38 C 59.99 23.97 60.11 43.15 49.80 54.81 C 44.23 61.66 35.76 65.48 27.12 66.52 C 27.10 68.22 27.09 69.92 27.08 71.63 C 31.94 72.33 36.75 73.48 41.17 75.67 C 30.38 75.99 19.56 76.06 8.78 75.64 C 13.06 73.28 17.88 72.30 22.67 71.57 C 22.66 69.89 22.66 68.22 22.66 66.55 C 17.18 65.58 11.39 64.54 6.89 61.02 C 5.38 60.13 5.93 58.24 5.74 56.81 C 9.84 57.29 13.36 59.51 17.20 60.80 C 25.38 63.19 34.59 61.48 41.44 56.42 C 48.55 51.31 52.78 42.69 53.13 34.01 C 53.00 25.24 48.87 16.47 41.74 11.24 C 39.21 9.32 36.16 8.24 33.57 6.42 C 33.27 5.29 33.04 4.15 32.86 2.99 Z" />
<path fill="#d71006" opacity="1.00" d=" M 22.16 9.73 C 24.11 9.72 26.06 9.72 28.01 9.73 C 28.28 16.56 28.09 23.39 28.16 30.22 C 35.03 30.59 41.92 30.39 48.81 30.34 C 48.84 32.61 48.88 34.88 48.91 37.14 C 42.02 37.44 35.11 37.25 28.21 37.28 C 28.06 44.12 28.30 50.97 28.00 57.80 C 26.06 57.81 24.12 57.82 22.18 57.82 C 22.02 50.97 22.29 44.12 21.95 37.27 C 14.88 37.26 7.80 37.44 0.74 37.18 C 0.81 34.90 0.88 32.63 0.97 30.35 C 7.99 30.38 15.01 30.53 22.03 30.26 C 22.21 23.41 22.07 16.57 22.16 9.73 Z" />
<path fill="#d71006" opacity="1.00" d=" M 42.38 21.30 C 43.56 20.60 44.95 20.81 46.25 20.83 C 42.17 24.35 37.37 27.50 31.87 27.97 C 35.10 25.35 38.64 23.12 42.38 21.30 Z" />
<path fill="#d71006" opacity="1.00" d=" M 2.81 22.02 C 7.02 22.95 10.71 25.30 14.07 27.93 C 9.65 27.81 5.09 25.99 2.81 22.02 Z" />
<path fill="#d71006" opacity="1.00" d=" M 4.13 46.15 C 8.55 43.52 12.81 39.91 18.22 39.79 C 14.24 43.06 9.60 45.36 5.11 47.84 C 4.86 47.42 4.37 46.57 4.13 46.15 Z" />
<path fill="#d71006" opacity="1.00" d=" M 36.70 39.80 C 40.36 39.97 43.62 41.67 46.70 43.50 C 46.48 44.25 46.27 45.01 46.05 45.76 C 42.76 44.07 39.50 42.26 36.70 39.80 Z" />
</g>
<g id="#013057ff">
<path fill="#013057" opacity="1.00" d=" M 5.98 18.61 C 9.37 14.09 14.46 11.43 19.80 9.93 C 19.86 15.39 19.89 20.84 19.76 26.30 C 14.99 24.06 10.48 21.34 5.98 18.61 Z" />
<path fill="#013057" opacity="1.00" d=" M 30.30 10.02 C 35.56 11.62 40.39 14.48 43.94 18.72 C 39.53 21.47 35.09 24.21 30.32 26.31 C 30.19 20.88 30.21 15.45 30.30 10.02 Z" />
<path fill="#013057" opacity="1.00" d=" M 2.28 24.87 C 3.92 25.77 5.54 26.68 7.15 27.63 C 5.15 27.71 3.16 27.78 1.16 27.86 C 1.53 26.86 1.91 25.86 2.28 24.87 Z" />
<path fill="#013057" opacity="1.00" d=" M 42.90 27.72 C 44.49 26.77 46.08 25.84 47.69 24.91 C 47.75 25.63 47.86 27.07 47.91 27.78 C 46.24 27.76 44.57 27.75 42.90 27.72 Z" />
<path fill="#013057" opacity="1.00" d=" M 67.86 30.18 C 70.31 30.20 72.76 30.21 75.21 30.34 C 73.17 30.71 71.12 30.99 69.07 31.25 C 69.03 33.46 69.00 35.67 68.98 37.88 C 70.43 38.12 71.88 38.36 73.33 38.61 C 71.93 38.93 70.53 39.22 69.13 39.51 C 69.06 41.92 69.02 44.32 69.02 46.73 C 71.10 46.98 73.18 47.26 75.24 47.64 C 72.78 47.79 70.32 47.82 67.86 47.85 C 67.57 41.96 67.57 36.06 67.86 30.18 Z" />
<path fill="#013057" opacity="1.00" d=" M 76.60 29.61 C 80.08 33.52 80.52 38.97 82.96 43.45 C 83.40 39.20 83.23 34.93 83.49 30.68 C 84.61 36.49 84.30 42.46 83.91 48.33 C 80.90 43.49 79.97 37.74 77.28 32.75 C 77.08 37.92 77.64 43.16 76.55 48.27 C 76.09 42.06 76.11 35.81 76.60 29.61 Z" />
<path fill="#013057" opacity="1.00" d=" M 86.65 32.50 C 87.18 29.61 90.71 30.27 92.85 30.03 C 93.43 32.07 93.88 34.14 94.11 36.26 C 93.19 34.46 92.37 32.60 91.55 30.76 C 90.23 31.25 88.17 31.04 87.68 32.71 C 86.52 36.77 86.43 41.24 87.66 45.29 C 88.29 47.09 90.62 46.75 92.08 47.35 C 93.00 44.33 93.36 41.03 91.21 38.42 C 91.93 38.55 93.36 38.81 94.08 38.94 C 93.89 41.84 94.69 45.30 92.48 47.63 C 90.41 48.52 87.13 48.09 86.64 45.49 C 86.00 41.20 86.00 36.78 86.65 32.50 Z" />
<path fill="#013057" opacity="1.00" d=" M 96.41 29.59 C 97.89 35.15 96.88 40.96 97.21 46.64 C 99.24 46.91 101.27 47.21 103.28 47.61 C 100.87 47.77 98.46 47.83 96.05 47.88 C 95.99 41.79 95.54 35.65 96.41 29.59 Z" />
<path fill="#013057" opacity="1.00" d=" M 107.86 33.10 C 107.73 30.55 110.65 29.44 112.75 30.15 C 115.25 30.29 114.74 33.34 115.36 35.06 C 114.37 33.64 113.44 32.18 112.51 30.72 C 111.13 31.26 109.06 31.28 108.96 33.20 C 108.12 38.33 116.57 39.58 115.24 44.91 C 115.02 48.48 111.05 48.11 108.55 47.61 C 108.26 46.08 107.97 44.55 107.71 43.01 C 108.53 44.34 109.34 45.67 110.16 46.99 C 111.36 46.84 112.57 46.68 113.78 46.53 C 113.80 45.12 113.89 43.70 113.73 42.30 C 111.86 39.18 106.91 37.42 107.86 33.10 Z" />
<path fill="#013057" opacity="1.00" d=" M 1.21 39.54 C 3.21 39.60 5.22 39.65 7.22 39.71 C 5.57 40.93 3.87 42.07 2.14 43.16 C 1.83 41.95 1.52 40.75 1.21 39.54 Z" />
<path fill="#013057" opacity="1.00" d=" M 44.67 40.11 C 45.55 39.16 47.56 39.56 47.84 40.89 C 47.74 42.93 43.81 41.92 44.67 40.11 Z" />
<path fill="#013057" opacity="1.00" d=" M 5.93 49.23 C 10.47 46.38 15.12 43.70 19.81 41.10 C 19.86 46.57 19.90 52.04 19.78 57.50 C 14.32 56.45 9.63 53.27 5.93 49.23 Z" />
<path fill="#013057" opacity="1.00" d=" M 30.33 40.97 C 34.89 43.45 39.35 46.12 43.91 48.60 C 40.59 53.07 35.74 56.19 30.31 57.38 C 30.19 51.91 30.20 46.44 30.33 40.97 Z" />
</g>
<g id="#d1a9abff">
<path fill="#d1a9ab" opacity="1.00" d=" M 104.01 29.98 C 104.51 29.98 105.50 29.97 105.99 29.97 C 106.08 35.98 106.06 41.99 105.97 48.00 C 105.48 48.00 104.50 48.00 104.01 48.00 C 103.96 42.00 103.95 35.99 104.01 29.98 Z" />
</g>
<g id="#556171ff">
<path fill="#556171" opacity="1.00" d=" M 117.39 29.47 C 118.30 32.19 118.41 35.07 118.42 37.92 C 120.15 37.93 121.88 37.95 123.61 37.97 C 123.65 35.13 123.81 32.28 124.58 29.53 C 125.34 35.83 125.33 42.23 124.59 48.52 C 123.72 45.53 123.62 42.41 123.59 39.32 C 121.87 39.34 120.15 39.34 118.43 39.33 C 118.42 42.44 118.42 45.60 117.38 48.57 C 116.67 42.24 116.64 35.80 117.39 29.47 Z" />
</g>
<g id="#b5140dff">
<path fill="#b5140d" opacity="1.00" d=" M 64.40 58.21 C 64.56 54.55 69.22 53.22 72.02 54.88 C 74.59 56.18 74.04 59.51 74.59 61.88 C 73.86 61.80 72.39 61.64 71.66 61.56 C 71.09 60.02 70.52 58.48 69.93 56.95 C 69.09 57.41 68.25 57.87 67.41 58.33 C 67.35 63.23 67.34 68.13 67.41 73.04 C 68.53 73.10 69.65 73.16 70.76 73.22 C 71.02 71.54 71.27 69.86 71.52 68.18 C 72.26 68.20 73.73 68.26 74.47 68.29 C 74.57 71.62 73.98 75.13 70.88 77.00 L 66.69 77.00 C 62.81 71.55 64.04 64.46 64.40 58.21 Z" />
<path fill="#b5140d" opacity="1.00" d=" M 114.22 54.31 C 115.67 54.34 117.13 54.36 118.58 54.38 C 119.45 59.36 120.05 64.40 121.38 69.29 C 122.24 64.36 122.67 59.36 123.77 54.47 C 125.24 54.56 126.71 54.65 128.18 54.74 C 128.27 61.52 128.57 68.31 128.13 75.08 C 128.72 76.93 124.74 76.79 125.37 74.89 C 125.14 71.18 125.22 67.45 124.66 63.77 C 123.92 67.71 123.71 71.76 122.55 75.61 C 121.55 76.05 120.49 76.29 119.37 76.33 C 118.84 72.14 118.31 67.95 117.41 63.82 C 116.74 67.85 116.73 71.94 116.80 76.01 C 116.11 76.04 114.74 76.10 114.06 76.12 C 113.81 68.86 113.70 61.57 114.22 54.31 Z" />
<path fill="#b5140d" opacity="1.00" d=" M 130.05 54.19 C 131.12 54.36 132.18 54.53 133.24 54.71 C 134.19 57.54 135.16 60.37 136.18 63.19 C 137.17 59.28 138.49 55.30 142.00 52.94 L 142.00 55.31 C 139.57 62.00 137.38 68.87 137.37 76.07 C 136.46 76.08 135.54 76.09 134.63 76.10 C 134.52 68.54 131.82 61.44 130.05 54.19 Z" />
<path fill="#b5140d" opacity="1.00" d=" M 54.03 54.74 C 55.70 54.71 57.36 54.69 59.03 54.68 C 60.22 62.00 61.80 69.28 62.26 76.69 C 60.00 76.24 58.77 74.52 57.98 72.50 C 56.93 72.42 55.87 72.34 54.81 72.28 C 53.99 74.06 53.19 76.09 51.05 76.60 C 51.35 69.23 53.08 62.03 54.03 54.74 M 54.98 69.74 C 55.73 69.72 57.25 69.69 58.01 69.68 C 57.69 66.35 57.22 63.04 56.51 59.77 C 55.47 62.99 55.10 66.37 54.98 69.74 Z" />
<path fill="#b5140d" opacity="1.00" d=" M 79.20 54.88 C 80.85 54.73 82.50 54.60 84.16 54.47 C 85.40 61.84 87.00 69.20 87.37 76.69 C 84.92 76.41 83.95 74.25 83.15 72.25 C 82.12 72.33 81.09 72.42 80.05 72.52 C 79.19 74.26 78.32 76.32 76.09 76.53 C 76.54 69.24 78.26 62.11 79.20 54.88 M 81.43 59.82 C 80.78 63.08 80.35 66.39 80.02 69.70 C 80.82 69.71 82.41 69.72 83.20 69.73 C 83.04 66.36 82.54 63.01 81.43 59.82 Z" />
<path fill="#b5140d" opacity="1.00" d=" M 89.68 54.56 C 92.84 54.78 97.22 53.57 99.29 56.70 C 100.09 62.48 100.10 68.51 99.29 74.29 C 97.09 77.23 92.86 76.06 89.71 76.29 C 89.44 69.05 89.49 61.80 89.68 54.56 M 92.79 57.73 C 92.61 62.90 92.61 68.07 92.79 73.24 C 93.64 73.25 95.35 73.26 96.21 73.27 C 96.87 68.10 96.86 62.86 96.23 57.69 C 95.37 57.70 93.65 57.72 92.79 57.73 Z" />
<path fill="#b5140d" opacity="1.00" d=" M 102.69 54.61 C 105.73 54.54 108.79 54.54 111.83 54.67 C 111.90 58.09 108.26 57.25 105.95 57.65 C 105.89 59.55 105.86 61.45 105.86 63.35 C 107.77 63.85 109.60 64.61 111.17 65.83 C 109.39 66.34 107.59 66.80 105.78 67.24 C 105.83 69.28 105.89 71.31 105.98 73.34 C 108.18 73.75 111.69 72.89 111.78 76.11 C 108.76 76.25 105.74 76.27 102.72 76.22 C 102.44 69.02 102.48 61.82 102.69 54.61 Z" />
</g>
</svg>
